<mxfile host="app.diagrams.net" modified="2023-11-21T21:03:37.368Z" agent="Mozilla/5.0 (X11; Linux x86_64; rv:109.0) Gecko/20100101 Firefox/119.0" etag="fAgjym4abUoq68B6qzX1" version="22.1.3" type="github">
  <diagram name="Page-1" id="2YBvvXClWsGukQMizWep">
    <mxGraphModel dx="1434" dy="781" grid="1" gridSize="10" guides="1" tooltips="1" connect="1" arrows="1" fold="1" page="1" pageScale="1" pageWidth="850" pageHeight="1100" math="0" shadow="0">
      <root>
        <mxCell id="0" />
        <mxCell id="1" parent="0" />
        <mxCell id="VJaN8FSAXTTDZ96irmdg-2" value="INTERFACE" style="shape=umlLifeline;perimeter=lifelinePerimeter;whiteSpace=wrap;html=1;container=1;dropTarget=0;collapsible=0;recursiveResize=0;outlineConnect=0;portConstraint=eastwest;newEdgeStyle={&quot;curved&quot;:0,&quot;rounded&quot;:0};size=40;" vertex="1" parent="1">
          <mxGeometry x="180" y="40" width="100" height="770" as="geometry" />
        </mxCell>
        <mxCell id="VJaN8FSAXTTDZ96irmdg-7" value="" style="html=1;points=[[0,0,0,0,5],[0,1,0,0,-5],[1,0,0,0,5],[1,1,0,0,-5]];perimeter=orthogonalPerimeter;outlineConnect=0;targetShapes=umlLifeline;portConstraint=eastwest;newEdgeStyle={&quot;curved&quot;:0,&quot;rounded&quot;:0};" vertex="1" parent="VJaN8FSAXTTDZ96irmdg-2">
          <mxGeometry x="45" y="50" width="10" height="320" as="geometry" />
        </mxCell>
        <mxCell id="VJaN8FSAXTTDZ96irmdg-65" value="" style="html=1;points=[[0,0,0,0,5],[0,1,0,0,-5],[1,0,0,0,5],[1,1,0,0,-5]];perimeter=orthogonalPerimeter;outlineConnect=0;targetShapes=umlLifeline;portConstraint=eastwest;newEdgeStyle={&quot;curved&quot;:0,&quot;rounded&quot;:0};" vertex="1" parent="VJaN8FSAXTTDZ96irmdg-2">
          <mxGeometry x="45" y="430" width="10" height="205" as="geometry" />
        </mxCell>
        <mxCell id="VJaN8FSAXTTDZ96irmdg-1" value="" style="shape=umlLifeline;perimeter=lifelinePerimeter;whiteSpace=wrap;html=1;container=1;dropTarget=0;collapsible=0;recursiveResize=0;outlineConnect=0;portConstraint=eastwest;newEdgeStyle={&quot;curved&quot;:0,&quot;rounded&quot;:0};participant=umlActor;" vertex="1" parent="1">
          <mxGeometry x="20" y="40" width="20" height="820" as="geometry" />
        </mxCell>
        <mxCell id="VJaN8FSAXTTDZ96irmdg-3" value="" style="html=1;points=[[0,0,0,0,5],[0,1,0,0,-5],[1,0,0,0,5],[1,1,0,0,-5]];perimeter=orthogonalPerimeter;outlineConnect=0;targetShapes=umlLifeline;portConstraint=eastwest;newEdgeStyle={&quot;curved&quot;:0,&quot;rounded&quot;:0};" vertex="1" parent="VJaN8FSAXTTDZ96irmdg-1">
          <mxGeometry x="5" y="60" width="10" height="730" as="geometry" />
        </mxCell>
        <mxCell id="VJaN8FSAXTTDZ96irmdg-4" value="&lt;div&gt;GATEWAY&lt;/div&gt;&lt;div&gt;&lt;br&gt;&lt;/div&gt;" style="shape=umlLifeline;perimeter=lifelinePerimeter;whiteSpace=wrap;html=1;container=1;dropTarget=0;collapsible=0;recursiveResize=0;outlineConnect=0;portConstraint=eastwest;newEdgeStyle={&quot;curved&quot;:0,&quot;rounded&quot;:0};size=40;" vertex="1" parent="1">
          <mxGeometry x="370" y="45" width="100" height="735" as="geometry" />
        </mxCell>
        <mxCell id="VJaN8FSAXTTDZ96irmdg-8" value="" style="html=1;points=[[0,0,0,0,5],[0,1,0,0,-5],[1,0,0,0,5],[1,1,0,0,-5]];perimeter=orthogonalPerimeter;outlineConnect=0;targetShapes=umlLifeline;portConstraint=eastwest;newEdgeStyle={&quot;curved&quot;:0,&quot;rounded&quot;:0};" vertex="1" parent="VJaN8FSAXTTDZ96irmdg-4">
          <mxGeometry x="45" y="45" width="10" height="325" as="geometry" />
        </mxCell>
        <mxCell id="VJaN8FSAXTTDZ96irmdg-66" value="" style="html=1;points=[[0,0,0,0,5],[0,1,0,0,-5],[1,0,0,0,5],[1,1,0,0,-5]];perimeter=orthogonalPerimeter;outlineConnect=0;targetShapes=umlLifeline;portConstraint=eastwest;newEdgeStyle={&quot;curved&quot;:0,&quot;rounded&quot;:0};" vertex="1" parent="VJaN8FSAXTTDZ96irmdg-4">
          <mxGeometry x="45" y="435" width="10" height="195" as="geometry" />
        </mxCell>
        <mxCell id="VJaN8FSAXTTDZ96irmdg-5" value="&lt;div&gt;AUTHORIZATION&lt;/div&gt;&lt;div&gt;MICROSERVICE&lt;/div&gt;" style="shape=umlLifeline;perimeter=lifelinePerimeter;whiteSpace=wrap;html=1;container=1;dropTarget=0;collapsible=0;recursiveResize=0;outlineConnect=0;portConstraint=eastwest;newEdgeStyle={&quot;curved&quot;:0,&quot;rounded&quot;:0};size=40;" vertex="1" parent="1">
          <mxGeometry x="530" y="40" width="101" height="590" as="geometry" />
        </mxCell>
        <mxCell id="VJaN8FSAXTTDZ96irmdg-9" value="" style="html=1;points=[[0,0,0,0,5],[0,1,0,0,-5],[1,0,0,0,5],[1,1,0,0,-5]];perimeter=orthogonalPerimeter;outlineConnect=0;targetShapes=umlLifeline;portConstraint=eastwest;newEdgeStyle={&quot;curved&quot;:0,&quot;rounded&quot;:0};" vertex="1" parent="VJaN8FSAXTTDZ96irmdg-5">
          <mxGeometry x="45" y="50" width="10" height="230" as="geometry" />
        </mxCell>
        <mxCell id="VJaN8FSAXTTDZ96irmdg-39" value="" style="html=1;points=[[0,0,0,0,5],[0,1,0,0,-5],[1,0,0,0,5],[1,1,0,0,-5]];perimeter=orthogonalPerimeter;outlineConnect=0;targetShapes=umlLifeline;portConstraint=eastwest;newEdgeStyle={&quot;curved&quot;:0,&quot;rounded&quot;:0};" vertex="1" parent="VJaN8FSAXTTDZ96irmdg-5">
          <mxGeometry x="45" y="390" width="10" height="180" as="geometry" />
        </mxCell>
        <mxCell id="VJaN8FSAXTTDZ96irmdg-6" value="&lt;div&gt;RESOURCE&lt;/div&gt;&lt;div&gt;MICROSERVICE&lt;br&gt;&lt;/div&gt;" style="shape=umlLifeline;perimeter=lifelinePerimeter;whiteSpace=wrap;html=1;container=1;dropTarget=0;collapsible=0;recursiveResize=0;outlineConnect=0;portConstraint=eastwest;newEdgeStyle={&quot;curved&quot;:0,&quot;rounded&quot;:0};size=40;" vertex="1" parent="1">
          <mxGeometry x="840" y="40" width="100" height="715" as="geometry" />
        </mxCell>
        <mxCell id="VJaN8FSAXTTDZ96irmdg-10" value="" style="html=1;points=[[0,0,0,0,5],[0,1,0,0,-5],[1,0,0,0,5],[1,1,0,0,-5]];perimeter=orthogonalPerimeter;outlineConnect=0;targetShapes=umlLifeline;portConstraint=eastwest;newEdgeStyle={&quot;curved&quot;:0,&quot;rounded&quot;:0};" vertex="1" parent="VJaN8FSAXTTDZ96irmdg-6">
          <mxGeometry x="45" y="140" width="10" height="560" as="geometry" />
        </mxCell>
        <mxCell id="VJaN8FSAXTTDZ96irmdg-14" style="edgeStyle=orthogonalEdgeStyle;rounded=0;orthogonalLoop=1;jettySize=auto;html=1;curved=0;" edge="1" parent="1" source="VJaN8FSAXTTDZ96irmdg-3" target="VJaN8FSAXTTDZ96irmdg-7">
          <mxGeometry relative="1" as="geometry">
            <mxPoint x="170" y="300" as="targetPoint" />
            <Array as="points">
              <mxPoint x="170" y="140" />
              <mxPoint x="170" y="140" />
            </Array>
          </mxGeometry>
        </mxCell>
        <mxCell id="VJaN8FSAXTTDZ96irmdg-15" value="username + password" style="text;html=1;align=center;verticalAlign=middle;resizable=0;points=[];autosize=1;strokeColor=none;fillColor=none;" vertex="1" parent="1">
          <mxGeometry x="90" y="118" width="140" height="30" as="geometry" />
        </mxCell>
        <mxCell id="VJaN8FSAXTTDZ96irmdg-17" style="edgeStyle=orthogonalEdgeStyle;rounded=0;orthogonalLoop=1;jettySize=auto;html=1;curved=0;" edge="1" parent="1" target="VJaN8FSAXTTDZ96irmdg-8">
          <mxGeometry relative="1" as="geometry">
            <mxPoint x="230" y="113" as="sourcePoint" />
            <mxPoint x="410" y="118" as="targetPoint" />
            <Array as="points">
              <mxPoint x="230" y="114" />
            </Array>
          </mxGeometry>
        </mxCell>
        <mxCell id="VJaN8FSAXTTDZ96irmdg-19" value="username + password" style="edgeLabel;html=1;align=center;verticalAlign=middle;resizable=0;points=[];" vertex="1" connectable="0" parent="VJaN8FSAXTTDZ96irmdg-17">
          <mxGeometry x="0.0753" y="-2" relative="1" as="geometry">
            <mxPoint x="-9" y="-16" as="offset" />
          </mxGeometry>
        </mxCell>
        <mxCell id="VJaN8FSAXTTDZ96irmdg-22" value="" style="edgeStyle=none;orthogonalLoop=1;jettySize=auto;html=1;rounded=0;" edge="1" parent="1" source="VJaN8FSAXTTDZ96irmdg-8" target="VJaN8FSAXTTDZ96irmdg-9">
          <mxGeometry width="100" relative="1" as="geometry">
            <mxPoint x="380" y="130" as="sourcePoint" />
            <mxPoint x="480" y="130" as="targetPoint" />
            <Array as="points">
              <mxPoint x="510" y="110" />
            </Array>
          </mxGeometry>
        </mxCell>
        <mxCell id="VJaN8FSAXTTDZ96irmdg-23" value="username + password" style="text;html=1;align=center;verticalAlign=middle;resizable=0;points=[];autosize=1;strokeColor=none;fillColor=none;" vertex="1" parent="1">
          <mxGeometry x="430" y="88" width="140" height="30" as="geometry" />
        </mxCell>
        <mxCell id="VJaN8FSAXTTDZ96irmdg-25" value="USER MICROSERVICE" style="shape=umlLifeline;perimeter=lifelinePerimeter;whiteSpace=wrap;html=1;container=1;dropTarget=0;collapsible=0;recursiveResize=0;outlineConnect=0;portConstraint=eastwest;newEdgeStyle={&quot;curved&quot;:0,&quot;rounded&quot;:0};size=40;" vertex="1" parent="1">
          <mxGeometry x="670" y="40" width="101" height="590" as="geometry" />
        </mxCell>
        <mxCell id="VJaN8FSAXTTDZ96irmdg-26" value="" style="html=1;points=[[0,0,0,0,5],[0,1,0,0,-5],[1,0,0,0,5],[1,1,0,0,-5]];perimeter=orthogonalPerimeter;outlineConnect=0;targetShapes=umlLifeline;portConstraint=eastwest;newEdgeStyle={&quot;curved&quot;:0,&quot;rounded&quot;:0};" vertex="1" parent="VJaN8FSAXTTDZ96irmdg-25">
          <mxGeometry x="45" y="50" width="10" height="230" as="geometry" />
        </mxCell>
        <mxCell id="VJaN8FSAXTTDZ96irmdg-54" value="" style="html=1;points=[[0,0,0,0,5],[0,1,0,0,-5],[1,0,0,0,5],[1,1,0,0,-5]];perimeter=orthogonalPerimeter;outlineConnect=0;targetShapes=umlLifeline;portConstraint=eastwest;newEdgeStyle={&quot;curved&quot;:0,&quot;rounded&quot;:0};" vertex="1" parent="VJaN8FSAXTTDZ96irmdg-25">
          <mxGeometry x="45" y="410" width="10" height="100" as="geometry" />
        </mxCell>
        <mxCell id="VJaN8FSAXTTDZ96irmdg-28" value="" style="edgeStyle=none;orthogonalLoop=1;jettySize=auto;html=1;rounded=0;" edge="1" parent="1">
          <mxGeometry width="100" relative="1" as="geometry">
            <mxPoint x="590" y="120" as="sourcePoint" />
            <mxPoint x="720" y="120" as="targetPoint" />
            <Array as="points" />
          </mxGeometry>
        </mxCell>
        <mxCell id="VJaN8FSAXTTDZ96irmdg-29" value="Request User" style="edgeLabel;html=1;align=center;verticalAlign=middle;resizable=0;points=[];" vertex="1" connectable="0" parent="VJaN8FSAXTTDZ96irmdg-28">
          <mxGeometry x="-0.3846" relative="1" as="geometry">
            <mxPoint x="20" y="-10" as="offset" />
          </mxGeometry>
        </mxCell>
        <mxCell id="VJaN8FSAXTTDZ96irmdg-30" value="" style="endArrow=block;dashed=1;endFill=0;endSize=12;html=1;rounded=0;" edge="1" parent="1" source="VJaN8FSAXTTDZ96irmdg-26" target="VJaN8FSAXTTDZ96irmdg-5">
          <mxGeometry width="160" relative="1" as="geometry">
            <mxPoint x="710" y="170" as="sourcePoint" />
            <mxPoint x="870" y="170" as="targetPoint" />
            <Array as="points">
              <mxPoint x="680" y="140" />
            </Array>
          </mxGeometry>
        </mxCell>
        <mxCell id="VJaN8FSAXTTDZ96irmdg-31" value="&lt;div&gt;User&lt;/div&gt;" style="text;html=1;align=center;verticalAlign=middle;resizable=0;points=[];autosize=1;strokeColor=none;fillColor=none;" vertex="1" parent="1">
          <mxGeometry x="631" y="118" width="50" height="30" as="geometry" />
        </mxCell>
        <mxCell id="VJaN8FSAXTTDZ96irmdg-32" value="" style="endArrow=block;dashed=1;endFill=0;endSize=12;html=1;rounded=0;" edge="1" parent="1" target="VJaN8FSAXTTDZ96irmdg-8">
          <mxGeometry width="160" relative="1" as="geometry">
            <mxPoint x="580" y="170" as="sourcePoint" />
            <mxPoint x="450" y="170" as="targetPoint" />
          </mxGeometry>
        </mxCell>
        <mxCell id="VJaN8FSAXTTDZ96irmdg-34" value="Text" style="edgeLabel;html=1;align=center;verticalAlign=middle;resizable=0;points=[];" vertex="1" connectable="0" parent="VJaN8FSAXTTDZ96irmdg-32">
          <mxGeometry x="-0.0839" y="-9" relative="1" as="geometry">
            <mxPoint as="offset" />
          </mxGeometry>
        </mxCell>
        <mxCell id="VJaN8FSAXTTDZ96irmdg-35" value="Access token" style="edgeLabel;html=1;align=center;verticalAlign=middle;resizable=0;points=[];" vertex="1" connectable="0" parent="VJaN8FSAXTTDZ96irmdg-32">
          <mxGeometry x="-0.0968" y="-8" relative="1" as="geometry">
            <mxPoint as="offset" />
          </mxGeometry>
        </mxCell>
        <mxCell id="VJaN8FSAXTTDZ96irmdg-36" value="" style="endArrow=block;dashed=1;endFill=0;endSize=12;html=1;rounded=0;" edge="1" parent="1" source="VJaN8FSAXTTDZ96irmdg-8" target="VJaN8FSAXTTDZ96irmdg-2">
          <mxGeometry width="160" relative="1" as="geometry">
            <mxPoint x="425" y="178" as="sourcePoint" />
            <mxPoint x="270" y="178" as="targetPoint" />
          </mxGeometry>
        </mxCell>
        <mxCell id="VJaN8FSAXTTDZ96irmdg-37" value="Text" style="edgeLabel;html=1;align=center;verticalAlign=middle;resizable=0;points=[];" vertex="1" connectable="0" parent="VJaN8FSAXTTDZ96irmdg-36">
          <mxGeometry x="-0.0839" y="-9" relative="1" as="geometry">
            <mxPoint as="offset" />
          </mxGeometry>
        </mxCell>
        <mxCell id="VJaN8FSAXTTDZ96irmdg-38" value="Access token" style="edgeLabel;html=1;align=center;verticalAlign=middle;resizable=0;points=[];" vertex="1" connectable="0" parent="VJaN8FSAXTTDZ96irmdg-36">
          <mxGeometry x="-0.0968" y="-8" relative="1" as="geometry">
            <mxPoint as="offset" />
          </mxGeometry>
        </mxCell>
        <mxCell id="VJaN8FSAXTTDZ96irmdg-40" style="edgeStyle=orthogonalEdgeStyle;rounded=0;orthogonalLoop=1;jettySize=auto;html=1;curved=0;" edge="1" parent="1">
          <mxGeometry relative="1" as="geometry">
            <mxPoint x="35.5" y="310" as="sourcePoint" />
            <mxPoint x="230" y="310" as="targetPoint" />
            <Array as="points">
              <mxPoint x="50.5" y="310" />
              <mxPoint x="50.5" y="310" />
            </Array>
          </mxGeometry>
        </mxCell>
        <mxCell id="VJaN8FSAXTTDZ96irmdg-41" value="Create album + access token" style="edgeLabel;html=1;align=center;verticalAlign=middle;resizable=0;points=[];" vertex="1" connectable="0" parent="VJaN8FSAXTTDZ96irmdg-40">
          <mxGeometry x="0.3561" relative="1" as="geometry">
            <mxPoint x="-32" y="-15" as="offset" />
          </mxGeometry>
        </mxCell>
        <mxCell id="VJaN8FSAXTTDZ96irmdg-47" style="edgeStyle=orthogonalEdgeStyle;rounded=0;orthogonalLoop=1;jettySize=auto;html=1;curved=0;" edge="1" parent="1" source="VJaN8FSAXTTDZ96irmdg-2" target="VJaN8FSAXTTDZ96irmdg-4">
          <mxGeometry relative="1" as="geometry" />
        </mxCell>
        <mxCell id="VJaN8FSAXTTDZ96irmdg-48" value="&lt;div&gt;Create album + access token &lt;/div&gt;" style="edgeLabel;html=1;align=center;verticalAlign=middle;resizable=0;points=[];" vertex="1" connectable="0" parent="VJaN8FSAXTTDZ96irmdg-47">
          <mxGeometry x="-0.025" y="1" relative="1" as="geometry">
            <mxPoint as="offset" />
          </mxGeometry>
        </mxCell>
        <mxCell id="VJaN8FSAXTTDZ96irmdg-49" style="edgeStyle=orthogonalEdgeStyle;rounded=0;orthogonalLoop=1;jettySize=auto;html=1;curved=0;" edge="1" parent="1" target="VJaN8FSAXTTDZ96irmdg-10">
          <mxGeometry relative="1" as="geometry">
            <mxPoint x="423.75" y="385" as="sourcePoint" />
            <mxPoint x="888.25" y="320" as="targetPoint" />
            <Array as="points">
              <mxPoint x="632" y="385" />
              <mxPoint x="632" y="380" />
            </Array>
          </mxGeometry>
        </mxCell>
        <mxCell id="VJaN8FSAXTTDZ96irmdg-51" value="&lt;div&gt;Create album + access token &lt;/div&gt;" style="edgeLabel;html=1;align=center;verticalAlign=middle;resizable=0;points=[];" vertex="1" connectable="0" parent="VJaN8FSAXTTDZ96irmdg-49">
          <mxGeometry x="-0.1796" y="3" relative="1" as="geometry">
            <mxPoint x="35" y="-12" as="offset" />
          </mxGeometry>
        </mxCell>
        <mxCell id="VJaN8FSAXTTDZ96irmdg-52" style="edgeStyle=orthogonalEdgeStyle;rounded=0;orthogonalLoop=1;jettySize=auto;html=1;curved=0;" edge="1" parent="1" target="VJaN8FSAXTTDZ96irmdg-39">
          <mxGeometry relative="1" as="geometry">
            <mxPoint x="590" y="490" as="targetPoint" />
            <mxPoint x="889.5" y="440" as="sourcePoint" />
            <Array as="points">
              <mxPoint x="890" y="441" />
              <mxPoint x="591" y="441" />
              <mxPoint x="591" y="490" />
            </Array>
          </mxGeometry>
        </mxCell>
        <mxCell id="VJaN8FSAXTTDZ96irmdg-53" value="&lt;div&gt;Request info by access&amp;nbsp;&lt;/div&gt;&lt;div&gt;token&lt;/div&gt;" style="edgeLabel;html=1;align=center;verticalAlign=middle;resizable=0;points=[];" vertex="1" connectable="0" parent="VJaN8FSAXTTDZ96irmdg-52">
          <mxGeometry x="0.0358" y="3" relative="1" as="geometry">
            <mxPoint x="10" y="-24" as="offset" />
          </mxGeometry>
        </mxCell>
        <mxCell id="VJaN8FSAXTTDZ96irmdg-55" style="edgeStyle=orthogonalEdgeStyle;rounded=0;orthogonalLoop=1;jettySize=auto;html=1;curved=0;" edge="1" parent="1" source="VJaN8FSAXTTDZ96irmdg-39" target="VJaN8FSAXTTDZ96irmdg-54">
          <mxGeometry relative="1" as="geometry">
            <Array as="points">
              <mxPoint x="650" y="510" />
              <mxPoint x="650" y="500" />
            </Array>
          </mxGeometry>
        </mxCell>
        <mxCell id="VJaN8FSAXTTDZ96irmdg-56" value="request User" style="edgeLabel;html=1;align=center;verticalAlign=middle;resizable=0;points=[];" vertex="1" connectable="0" parent="VJaN8FSAXTTDZ96irmdg-55">
          <mxGeometry x="0.1" relative="1" as="geometry">
            <mxPoint x="4" y="-10" as="offset" />
          </mxGeometry>
        </mxCell>
        <mxCell id="VJaN8FSAXTTDZ96irmdg-57" value="" style="endArrow=block;dashed=1;endFill=0;endSize=12;html=1;rounded=0;" edge="1" parent="1" target="VJaN8FSAXTTDZ96irmdg-5">
          <mxGeometry width="160" relative="1" as="geometry">
            <mxPoint x="720" y="540" as="sourcePoint" />
            <mxPoint x="880" y="540" as="targetPoint" />
          </mxGeometry>
        </mxCell>
        <mxCell id="VJaN8FSAXTTDZ96irmdg-60" value="" style="edgeStyle=orthogonalEdgeStyle;rounded=0;orthogonalLoop=1;jettySize=auto;html=1;" edge="1" parent="1" source="VJaN8FSAXTTDZ96irmdg-58" target="VJaN8FSAXTTDZ96irmdg-39">
          <mxGeometry relative="1" as="geometry" />
        </mxCell>
        <mxCell id="VJaN8FSAXTTDZ96irmdg-58" value="&lt;div&gt;User&lt;/div&gt;" style="text;html=1;align=center;verticalAlign=middle;resizable=0;points=[];autosize=1;strokeColor=none;fillColor=none;" vertex="1" parent="1">
          <mxGeometry x="631" y="520" width="50" height="30" as="geometry" />
        </mxCell>
        <mxCell id="VJaN8FSAXTTDZ96irmdg-63" value="" style="endArrow=block;dashed=1;endFill=0;endSize=12;html=1;rounded=0;" edge="1" parent="1">
          <mxGeometry width="160" relative="1" as="geometry">
            <mxPoint x="590" y="580" as="sourcePoint" />
            <mxPoint x="889.5" y="580" as="targetPoint" />
          </mxGeometry>
        </mxCell>
        <mxCell id="VJaN8FSAXTTDZ96irmdg-64" value="User Info" style="edgeLabel;html=1;align=center;verticalAlign=middle;resizable=0;points=[];" vertex="1" connectable="0" parent="VJaN8FSAXTTDZ96irmdg-63">
          <mxGeometry x="-0.5793" y="2" relative="1" as="geometry">
            <mxPoint x="97" y="-8" as="offset" />
          </mxGeometry>
        </mxCell>
        <mxCell id="VJaN8FSAXTTDZ96irmdg-69" value="" style="endArrow=block;dashed=1;endFill=0;endSize=12;html=1;rounded=0;" edge="1" parent="1">
          <mxGeometry width="160" relative="1" as="geometry">
            <mxPoint x="891" y="640" as="sourcePoint" />
            <mxPoint x="421" y="640" as="targetPoint" />
            <Array as="points">
              <mxPoint x="501.5" y="640" />
            </Array>
          </mxGeometry>
        </mxCell>
        <mxCell id="VJaN8FSAXTTDZ96irmdg-70" value="Album resource" style="edgeLabel;html=1;align=center;verticalAlign=middle;resizable=0;points=[];" vertex="1" connectable="0" parent="VJaN8FSAXTTDZ96irmdg-69">
          <mxGeometry x="-0.0185" y="1" relative="1" as="geometry">
            <mxPoint x="2" y="-11" as="offset" />
          </mxGeometry>
        </mxCell>
        <mxCell id="VJaN8FSAXTTDZ96irmdg-71" value="" style="endArrow=block;dashed=1;endFill=0;endSize=12;html=1;rounded=0;" edge="1" parent="1">
          <mxGeometry width="160" relative="1" as="geometry">
            <mxPoint x="410" y="620" as="sourcePoint" />
            <mxPoint x="230" y="620" as="targetPoint" />
          </mxGeometry>
        </mxCell>
        <mxCell id="VJaN8FSAXTTDZ96irmdg-72" value="Album resource" style="edgeLabel;html=1;align=center;verticalAlign=middle;resizable=0;points=[];" vertex="1" connectable="0" parent="VJaN8FSAXTTDZ96irmdg-71">
          <mxGeometry x="-0.0185" y="1" relative="1" as="geometry">
            <mxPoint x="2" y="-11" as="offset" />
          </mxGeometry>
        </mxCell>
      </root>
    </mxGraphModel>
  </diagram>
</mxfile>
